<svg width="16" height="10" viewBox="0 0 16 10" fill="none" xmlns="http://www.w3.org/2000/svg">
<path d="M8.10449 3.9502C8.49023 3.9502 8.854 4.02344 9.1958 4.16992C9.5376 4.31641 9.83545 4.5166 10.0894 4.77051C10.3433 5.02441 10.5459 5.32471 10.6973 5.67139C10.8486 6.01807 10.9219 6.38184 10.917 6.7627C10.917 7.15332 10.8438 7.51709 10.6973 7.854C10.5508 8.19092 10.3506 8.48877 10.0967 8.74756C9.84277 9.00635 9.54248 9.20898 9.1958 9.35547C8.84912 9.50195 8.48535 9.5752 8.10449 9.5752C7.71387 9.5752 7.3501 9.50195 7.01318 9.35547C6.67627 9.20898 6.37842 9.00879 6.11963 8.75488C5.86084 8.50098 5.6582 8.20312 5.51172 7.86133C5.36523 7.51953 5.29199 7.15332 5.29199 6.7627C5.29199 6.37695 5.36523 6.01318 5.51172 5.67139C5.6582 5.32959 5.8584 5.03174 6.1123 4.77783C6.36621 4.52393 6.66406 4.32129 7.00586 4.16992C7.34766 4.01855 7.71387 3.94531 8.10449 3.9502ZM8.10449 8.6377C8.36328 8.6377 8.60498 8.58887 8.82959 8.49121C9.0542 8.39355 9.25439 8.25928 9.43018 8.08838C9.60596 7.91748 9.74023 7.71973 9.83301 7.49512C9.92578 7.27051 9.97461 7.02637 9.97949 6.7627C9.97949 6.50391 9.93066 6.26221 9.83301 6.0376C9.73535 5.81299 9.60107 5.61279 9.43018 5.43701C9.25928 5.26123 9.06152 5.12695 8.83691 5.03418C8.6123 4.94141 8.36816 4.89258 8.10449 4.8877C7.8457 4.8877 7.604 4.93652 7.37939 5.03418C7.15479 5.13184 6.95459 5.26611 6.77881 5.43701C6.60303 5.60791 6.46875 5.80566 6.37598 6.03027C6.2832 6.25488 6.23438 6.49902 6.22949 6.7627C6.22949 7.02148 6.27832 7.26318 6.37598 7.48779C6.47363 7.7124 6.60791 7.9126 6.77881 8.08838C6.94971 8.26416 7.14746 8.39844 7.37207 8.49121C7.59668 8.58398 7.84082 8.63281 8.10449 8.6377ZM8.10449 0.200195C8.80273 0.200195 9.49609 0.285645 10.1846 0.456543C10.873 0.627441 11.5225 0.883789 12.1328 1.22559C12.7432 1.56738 13.2949 1.98242 13.7881 2.4707C14.2812 2.95898 14.6865 3.53027 15.0039 4.18457C15.1992 4.58984 15.3481 5.00732 15.4507 5.43701C15.5532 5.8667 15.6045 6.30859 15.6045 6.7627H14.667C14.667 6.18652 14.5791 5.64697 14.4033 5.14404C14.2275 4.64111 13.9858 4.18213 13.6782 3.76709C13.3706 3.35205 13.0044 2.98096 12.5796 2.65381C12.1548 2.32666 11.7031 2.05078 11.2246 1.82617C10.7461 1.60156 10.2358 1.43066 9.69385 1.31348C9.15186 1.19629 8.62207 1.1377 8.10449 1.1377C7.57715 1.1377 7.04736 1.19629 6.51514 1.31348C5.98291 1.43066 5.4751 1.60156 4.9917 1.82617C4.5083 2.05078 4.0542 2.32666 3.62939 2.65381C3.20459 2.98096 2.84082 3.35205 2.53809 3.76709C2.23535 4.18213 1.99121 4.64111 1.80566 5.14404C1.62012 5.64697 1.53223 6.18652 1.54199 6.7627H0.604492C0.604492 6.31348 0.655762 5.87402 0.758301 5.44434C0.86084 5.01465 1.00977 4.59473 1.20508 4.18457C1.51758 3.54004 1.92041 2.97119 2.41357 2.47803C2.90674 1.98486 3.46094 1.56738 4.07617 1.22559C4.69141 0.883789 5.34082 0.629883 6.02441 0.463867C6.70801 0.297852 7.40137 0.209961 8.10449 0.200195Z" fill="#4F4F4F" fill-opacity="0.8"/>
</svg>
