<svg width="60" height="36" viewBox="0 0 60 36" fill="none" xmlns="http://www.w3.org/2000/svg">
<path d="M53.125 0C51 2.58333 49.5208 5.125 48.6875 7.625C47.8958 10.125 47.5 12.5 47.5 14.75C48.9167 14.75 50.3542 14.8542 51.8125 15.0625C53.2708 15.2708 54.5625 15.6042 55.6875 16.0625C56.8542 16.5208 57.7917 17.1042 58.5 17.8125C59.25 18.5208 59.625 19.375 59.625 20.375V29.5C59.625 30.5833 59.25 31.5208 58.5 32.3125C57.7917 33.1042 56.8542 33.75 55.6875 34.25C54.5208 34.75 53.2083 35.125 51.75 35.375C50.2917 35.625 48.8333 35.75 47.375 35.75C45.8333 35.75 44.3125 35.625 42.8125 35.375C41.3542 35.125 40.0417 34.75 38.875 34.25C37.7083 33.75 36.7708 33.1042 36.0625 32.3125C35.3542 31.5208 35 30.5833 35 29.5V24.25C35 23.0833 35.0625 21.4792 35.1875 19.4375C35.3542 17.3542 35.7083 15.1458 36.25 12.8125C36.8333 10.4792 37.6458 8.16667 38.6875 5.875C39.7292 3.58333 41.1667 1.625 43 0H53.125ZM19 0C16.875 2.58333 15.375 5.125 14.5 7.625C13.6667 10.125 13.25 12.5 13.25 14.75C14.7083 14.75 16.1667 14.8542 17.625 15.0625C19.0833 15.2708 20.375 15.6042 21.5 16.0625C22.6667 16.5208 23.6042 17.1042 24.3125 17.8125C25.0208 18.5208 25.375 19.375 25.375 20.375V29.5C25.375 30.5833 25.0208 31.5208 24.3125 32.3125C23.6042 33.1042 22.6667 33.75 21.5 34.25C20.3333 34.75 19.0208 35.125 17.5625 35.375C16.1042 35.625 14.625 35.75 13.125 35.75C11.625 35.75 10.125 35.625 8.625 35.375C7.16667 35.125 5.85417 34.75 4.6875 34.25C3.52083 33.75 2.5625 33.1042 1.8125 32.3125C1.10417 31.5208 0.75 30.5833 0.75 29.5V24.25C0.75 23.0833 0.8125 21.4792 0.9375 19.4375C1.10417 17.3542 1.45833 15.1458 2 12.8125C2.58333 10.4792 3.39583 8.16667 4.4375 5.875C5.47917 3.58333 6.91667 1.625 8.75 0H19Z" fill="white" fill-opacity="0.3"/>
</svg>
