<svg width="173" height="172" viewBox="0 0 173 172" fill="none" xmlns="http://www.w3.org/2000/svg">
<g clip-path="url(#clip0_1_18616)">
<path d="M99.5263 147.693C96.029 147.12 92.8049 145.448 90.3212 142.92L81.4941 134.007C80.3997 132.895 78.9784 132.162 77.4378 131.915C75.8971 131.669 74.318 131.921 72.9312 132.636L61.7629 138.349C58.8753 139.823 55.6216 140.427 52.3973 140.087C49.173 139.747 46.1169 138.477 43.6007 136.432C41.0844 134.388 39.2162 131.656 38.2232 128.57C37.2302 125.484 37.1552 122.175 38.0073 119.047L41.3204 106.95C41.7376 105.447 41.662 103.851 41.1048 102.394C40.5475 100.938 39.538 99.6989 38.2244 98.8588L27.7076 92.0484C24.9775 90.2911 22.8184 87.7765 21.4942 84.812C20.17 81.8475 19.7381 78.5614 20.2513 75.3554C20.7645 72.1493 22.2005 69.1622 24.3839 66.7592C26.5673 64.3561 29.4034 62.6411 32.5457 61.8238L44.6627 58.6364C46.1729 58.2483 47.5189 57.3861 48.5029 56.1765C49.4869 54.9669 50.057 53.4736 50.1296 51.916L50.7581 39.3891C50.9251 36.1512 52.029 33.0316 53.9358 30.4093C55.8425 27.7871 58.47 25.7752 61.4987 24.6183C64.5274 23.4613 67.8271 23.2091 70.9965 23.8923C74.1659 24.5755 77.0686 26.1646 79.3517 28.4666L88.1788 37.3801C89.2732 38.4922 90.6945 39.2251 92.2352 39.4717C93.7758 39.7183 95.3549 39.4657 96.7417 38.7507L107.91 33.0379C109.901 32.0052 112.083 31.3917 114.321 31.2355C116.559 31.0793 118.805 31.3836 120.92 32.1297C123.082 32.89 125.067 34.0795 126.757 35.6267C128.447 37.1739 129.806 39.0469 130.754 41.1331C131.019 41.6959 131.169 42.3058 131.196 42.9273C131.223 43.5488 131.126 44.1695 130.911 44.7532C130.696 45.3369 130.366 45.8718 129.942 46.3269C129.518 46.782 129.008 47.1482 128.441 47.404C127.873 47.6597 127.261 47.8001 126.639 47.8168C126.017 47.8335 125.398 47.7263 124.818 47.5014C124.238 47.2764 123.709 46.9383 123.261 46.5066C122.813 46.075 122.455 45.5585 122.209 44.9872C121.785 44.0584 121.177 43.2251 120.422 42.5373C119.668 41.8495 118.782 41.3215 117.818 40.985C116.89 40.6558 115.904 40.525 114.923 40.601C113.942 40.677 112.987 40.9581 112.122 41.4262L100.953 47.139C97.7916 48.76 94.1957 49.3312 90.6875 48.7697C87.1793 48.2081 83.9413 46.543 81.4437 44.0161L72.6398 35.1064C71.644 34.0642 70.3632 33.3385 68.9574 33.0198C67.5517 32.7012 66.0832 32.8038 64.7353 33.3147C63.3875 33.8257 62.2201 34.7224 61.3788 35.8929C60.5376 37.0634 60.0598 38.4557 60.0051 39.8961L59.3803 52.3999C59.2272 55.9417 57.9485 59.3424 55.7301 62.1077C53.5117 64.8729 50.4693 66.8587 47.0449 67.7763L34.9047 70.9599C33.5281 71.3247 32.2868 72.0811 31.3315 73.1373C30.3762 74.1936 29.7479 75.5044 29.5228 76.9106C29.2977 78.3169 29.4854 79.7583 30.0633 81.06C30.6412 82.3617 31.5843 83.4677 32.7784 84.244L43.3405 90.9192C46.3278 92.8428 48.6222 95.671 49.8885 98.9909C51.1548 102.311 51.3268 105.949 50.3793 109.373L47.07 121.447C46.6723 122.833 46.6916 124.305 47.1255 125.679C47.5593 127.054 48.3885 128.27 49.5095 129.176C50.6305 130.082 51.9936 130.638 53.4286 130.774C54.8636 130.91 56.3069 130.621 57.5782 129.941L68.7234 124.225C71.885 122.604 75.4809 122.033 78.9891 122.594C82.4973 123.156 85.7353 124.821 88.2329 127.348L97.06 136.261C98.0558 137.303 99.3366 138.029 100.742 138.348C102.148 138.666 103.617 138.564 104.964 138.053C106.312 137.542 107.48 136.645 108.321 135.475C109.162 134.304 109.64 132.912 109.695 131.471L110.319 118.968C110.471 115.432 111.747 112.036 113.96 109.274C116.174 106.513 119.21 104.529 122.628 103.611L134.768 100.427C136.145 100.062 137.386 99.3059 138.341 98.2496C139.297 97.1934 139.925 95.8826 140.15 94.4763C140.375 93.07 140.187 91.6286 139.61 90.327C139.032 89.0253 138.089 87.9192 136.895 87.143L131.146 83.6119C130.61 83.2869 130.145 82.8578 129.778 82.35C129.411 81.8422 129.15 81.266 129.01 80.6554C128.869 80.0449 128.852 79.4123 128.961 78.7952C129.069 78.1781 129.3 77.589 129.639 77.0626C129.979 76.5362 130.421 76.0832 130.939 75.7305C131.456 75.3778 132.04 75.1324 132.654 75.0089C133.268 74.8854 133.901 74.8863 134.515 75.0116C135.129 75.1368 135.711 75.3838 136.228 75.738L141.95 79.4311C144.681 81.1884 146.84 83.703 148.164 86.6675C149.488 89.6321 149.92 92.9181 149.407 96.1242C148.894 99.3302 147.458 102.317 145.274 104.72C143.091 107.123 140.255 108.838 137.112 109.656L124.995 112.843C123.485 113.233 122.138 114.095 121.151 115.303C120.164 116.511 119.587 118.002 119.505 119.56L118.877 132.087C118.755 135.335 117.671 138.475 115.763 141.106C113.854 143.738 111.206 145.743 108.156 146.867C105.401 147.892 102.426 148.177 99.5263 147.693Z" fill="#FFA24F"/>
<path d="M82.7771 101.979C82.1663 101.882 81.5807 101.665 81.0542 101.34C80.5277 101.016 80.0707 100.59 79.7094 100.088L62.9729 76.9723C62.5424 76.4801 62.2195 75.9032 62.0252 75.2787C61.8309 74.6543 61.7695 73.9961 61.8448 73.3464C61.9201 72.6968 62.1305 72.0701 62.4624 71.5066C62.7944 70.9432 63.2406 70.4554 63.7724 70.0747C64.3041 69.694 64.9096 69.4288 65.55 69.2961C66.1904 69.1634 66.8515 69.1662 67.4907 69.3043C68.13 69.4423 68.7332 69.7126 69.2618 70.0978C69.7903 70.4829 70.2324 70.9744 70.5596 71.5407L84.5553 90.8708L152.87 41.3269C153.879 40.6718 155.102 40.4299 156.284 40.6513C157.467 40.8728 158.519 41.5406 159.223 42.5165C159.927 43.4924 160.229 44.7016 160.066 45.8938C159.903 47.086 159.288 48.1699 158.348 48.921L86.2625 101.113C85.767 101.48 85.2042 101.745 84.6061 101.893C84.008 102.042 83.3865 102.071 82.7771 101.979Z" fill="#FFA24F"/>
</g>
<defs>
<clipPath id="clip0_1_18616">
<rect width="150" height="150" fill="white" transform="translate(24) rotate(9.09417)"/>
</clipPath>
</defs>
</svg>
