<svg width="671" height="249" viewBox="0 0 671 249" fill="none" xmlns="http://www.w3.org/2000/svg">
<g id="Group 23">
<path id="Vector" fill-rule="evenodd" clip-rule="evenodd" d="M304.54 26.4899C305.77 17.8399 310.48 17.07 315.14 22.82C327.14 41.8 328.79 63.1399 328.85 83.5499C329.48 84.5199 329.94 85.59 330.14 86.76C331.6 95.21 342.38 129.51 326.37 129.93L302.05 128.8C296.3 128.53 294.18 123.24 293.73 118.23C292.87 108.51 295.24 99.49 297.73 90.23C297.95 89.42 298.21 88.64 298.5 87.89C294.95 65.67 302.45 46.9899 304.54 26.4899ZM327.32 81.6999C327.15 61.3499 325.1 41.4599 313.91 23.7099C312.92 22.5099 310.72 20.21 308.98 20.71C307.06 21.27 306.29 25.0199 306.05 26.6699C304.99 37.0399 302.51 47.1499 300.81 57.4099C299.24 66.8799 298.5 75.9999 299.7 85.4299C302.82 79.9699 308.32 76.8399 315.2 77.0299C318.59 77.1199 322.13 78.0699 325.01 79.8899C325.82 80.4099 326.61 81.0199 327.32 81.6999ZM326.39 128.24C329.58 128.14 331.36 126.4 332.37 123.48C333.63 119.82 333.47 114.99 333.11 111.16C332.67 106.4 331.76 101.68 330.73 97.0199C330.3 95.0699 329.84 93.12 329.38 91.17C329.06 89.8 328.72 88.43 328.49 87.04C328.06 84.56 326.17 82.6099 324.11 81.3099C321.49 79.6499 318.24 78.7899 315.16 78.7099C307.23 78.4999 301.42 83.06 299.38 90.67C296.97 99.64 294.59 108.7 295.43 118.08C295.79 122.14 297.32 126.89 302.15 127.11L326.39 128.24Z" fill="black"/>
<path id="Vector_2" fill-rule="evenodd" clip-rule="evenodd" d="M286.98 129.52C280.43 130.66 273.98 130.2 267.64 128.11C263.36 126.44 261.13 123.02 260.31 118.57C259.41 110.03 261.42 100.73 263.81 92.5799C263.83 92.5099 263.85 92.4499 263.87 92.3799C263.39 81.1799 265.55 69.9399 267.34 58.9399C269.18 47.6499 270.62 36.0199 268.4 24.6699L268.38 24.5899L268.39 24.5099C269.45 18.5399 273.14 18.1099 277.22 22.0199L277.25 22.0499L277.27 22.0799C283.48 31.6499 285.53 45.3099 286.72 56.4899C288.05 69.1099 288.06 81.8499 289.73 94.4299C289.89 94.9199 290.03 95.4199 290.16 95.9199C293.03 104.76 294.25 114.21 293.76 123.5C293.56 127.41 290.65 129.32 286.98 129.52ZM287.46 89.5899C286.3 78.6499 285.98 67.6299 284.82 56.6799C283.68 45.8699 281.72 32.5499 275.78 23.2699C274.97 22.5099 273.39 21.2599 272.23 21.3799C271.03 21.5099 270.52 23.5699 270.33 24.5699C272.53 36.0599 271.1 47.8099 269.23 59.2399C267.64 68.9599 265.63 78.7599 265.53 88.6399C267.85 84.9899 271.77 82.7999 276.16 82.8899C280.96 82.9999 284.93 85.7199 287.46 89.5899ZM262.22 118.29C262.91 122 264.68 124.88 268.3 126.3C274.28 128.27 280.46 128.7 286.67 127.62L286.77 127.6L286.87 127.59C289.54 127.44 291.7 126.29 291.85 123.38C292.33 114.32 291.16 105.11 288.34 96.4799L288.32 96.4299L288.31 96.3799C286.88 90.6599 282.94 85.2399 276.61 84.8199C271.3 84.4699 267.03 88.0699 265.67 93.0899C263.34 101.02 261.37 110.04 262.22 118.29Z" fill="black"/>
<path id="Vector_3" fill-rule="evenodd" clip-rule="evenodd" d="M224.6 92.3001C224.71 85.9001 225.18 79.4701 225.78 73.1001C226.44 66.0901 227.26 59.1001 228.11 52.1101C229.78 38.4001 231.66 24.5901 232.58 10.8001C232.83 7.11008 236 4.66008 238.28 2.09008C240.58 -0.509923 242.2 -0.399923 243.58 2.84008C249.42 16.5001 251.41 31.9501 252.56 46.6501C253.77 62.1201 254.01 77.7301 256 93.1201C256.03 93.1801 256.05 93.2401 256.08 93.3001C258.7 99.9501 261.59 108.16 260 115.31C257.63 125.98 249.23 130.04 239.69 133.13L239.6 133.16L239.51 133.12C232.18 129.96 223.11 124.99 220.35 116.98C218.81 112.52 218.84 108.44 220.15 103.94C221.31 99.9701 223.23 96.2301 224.6 92.3001ZM226.95 87.6301C230.04 83.2501 234.8 81.2201 240.17 81.7301C245.13 82.2001 250.01 84.8201 253.24 88.6401C251.75 74.8301 251.44 60.9201 250.37 47.0701C249.25 32.5101 247.33 17.2401 241.54 3.71009C241.42 3.43009 241.17 2.89009 240.94 2.57009C240.6 2.81009 240.13 3.30008 239.91 3.55008C238.13 5.55008 234.95 8.11008 234.76 10.9501C233.83 24.8101 231.96 38.5901 230.28 52.3801C229.43 59.3501 228.61 66.3201 227.96 73.3001C227.52 78.0701 227.15 82.8501 226.95 87.6301ZM239.68 131.13C248.32 128.28 255.96 124.58 258.11 114.91C259.6 108.21 256.72 100.21 254.28 94.0201C252.1 88.4901 246.32 84.4401 240.5 83.6901C233.62 82.8001 228.64 86.4901 226.42 92.8901C223.57 101.08 219.06 107.37 222.15 116.37C224.64 123.59 233.09 128.24 239.68 131.13Z" fill="black"/>
<path id="Vector_4" fill-rule="evenodd" clip-rule="evenodd" d="M190.78 90.5001C192.43 73.6201 193.57 56.6901 195.91 39.8801L195.88 39.7701C194.59 34.8301 193.56 28.4701 194.78 23.4501C195.42 20.7901 197.11 17.6601 200.26 17.9101C201.17 16.5801 202.74 15.5001 204.41 15.7601C206.46 16.0801 207.3 18.1601 207.51 19.9901C208.85 31.6801 209.72 43.3801 210.57 55.1101C211.36 66.0001 212.18 76.8901 213.55 87.7201C215.32 94.0901 217.4 100.31 219.95 106.43L219.97 106.47L219.71 112.39L219.7 112.42C215.78 123.04 209.24 128.53 198.01 129.92C195.49 130.23 192.27 127.86 190.53 126.26C187.86 123.82 185.45 120.5 184.27 117.06L184.26 117.03L184.15 105.71L184.16 105.68C185.66 100.36 187.86 95.2001 190.78 90.5001ZM211.82 86.9201C210.56 76.7101 209.78 66.4501 209.03 56.1901C208.15 44.1701 207.27 32.1501 205.91 20.1801C205.39 15.6001 201.59 17.2201 200.88 20.6301C196.23 43.0601 194.79 65.9101 192.61 88.6601C198.25 83.7501 205.16 84.3701 211.82 86.9201ZM199.04 19.4101C197.36 19.9901 196.5 22.2001 196.12 23.7701C195.34 27.0001 195.86 29.5101 196.44 32.5501L199.04 19.4101ZM192.18 91.4601C189.39 95.9501 187.29 100.87 185.84 105.95C185.24 109.54 185.18 113.15 185.95 116.72C187.06 119.8 189.26 122.8 191.68 125.01C193 126.21 195.94 128.47 197.81 128.24C208.35 126.94 214.34 121.91 218.05 112.03C218.68 110.35 218.95 108.52 218.28 106.81C215.99 100.91 213.84 94.9601 212.12 88.8701C205.02 85.9301 197.74 85.2001 192.18 91.4601Z" fill="black"/>
<path id="Vector_5" fill-rule="evenodd" clip-rule="evenodd" d="M174.68 35.17C173.33 26.87 167.4 31.16 165.92 36.34C159.82 53.94 161.24 78.01 157.12 96.39C156.73 97.92 156.36 99.45 155.96 100.97C155.1 104.32 154.14 107.6 152.88 110.82C152.39 112.07 152.13 114.94 152.11 116.26C152.08 118.54 152.45 121.62 154.6 122.9C156.38 123.96 158.13 125.04 159.89 126.13C160.91 126.76 161.97 127.43 163.04 127.96C164.84 128.86 166.08 128.92 168.08 128.85C174.55 128.62 182.8 124.43 184.49 117.67C186.23 110.72 185.47 104.19 182.21 97.85C182.88 77.5 177.15 55.63 174.68 35.17ZM157.12 96.39L159.64 93.6L159.61 93.69C158.85 96.23 158.26 98.82 157.6 101.39C156.73 104.78 155.75 108.15 154.46 111.42C153.72 113.65 153.1 120.04 155.47 121.45C157.25 122.51 159.02 123.6 160.78 124.69C161.77 125.3 162.76 125.93 163.8 126.45C165.33 127.21 166.35 127.23 168.02 127.17C173.74 126.97 181.35 123.25 182.85 117.27C184.53 110.57 183.73 104.29 180.48 98.19C180.35 97.95 180.21 97.72 180.07 97.5C180.02 97.43 179.97 97.37 179.93 97.3C179.18 96.22 178.26 95.37 177.21 94.49C175.63 93.17 173.26 90.63 171.08 90.64C167.18 90.66 163.17 91.73 159.72 93.55L159.64 93.59L159.63 93.6L157.12 96.39ZM159.94 91.56C160.03 91.11 160.11 90.67 160.2 90.22L161.2 83.68C162 77.36 162.37 70.96 162.85 64.64C163.56 55.37 164.49 45.74 167.55 36.91L167.57 36.87L167.58 36.82C168.02 35.28 169.36 32.91 170.95 32.32C171.28 32.2 171.53 32.17 171.8 32.42C172.48 33.02 172.83 34.56 172.97 35.42C174.23 45.86 176.31 56.18 177.98 66.56C179.5 76.03 180.71 85.65 180.52 95.26L180.48 95.25C179.84 94.52 179.11 93.87 178.31 93.19C176.27 91.48 173.94 88.93 171.09 88.94C167.29 88.97 163.39 89.92 159.94 91.56Z" fill="black"/>
<path id="Vector_6" fill-rule="evenodd" clip-rule="evenodd" d="M126.52 28.3699C127.51 26.5299 129.31 23.5299 131.51 23.6399C133.2 23.7199 134.46 25.6099 135.24 27.0599C136.17 25.6099 137.71 24.5299 139.4 25.6299C151.74 33.6299 150.58 47.5199 149.15 60.4099C147.48 75.5399 144.99 90.9799 152.15 105.23L152.16 105.25L152.17 105.27C154.39 113.91 151.02 118.95 142.76 122.24C141.24 123.06 139.78 123.12 138.77 121.65C132.31 124.31 126.73 124.46 122.42 118.28C122.41 118.27 122.39 118.23 122.37 118.23C121.96 118.26 121.01 120.7 119.68 120.62C118.11 120.53 114.93 119.95 113.63 120.93L113.57 120.97H113.5C109.89 121.16 106.9 119.74 104.58 116.97C100.2 111.74 99.78 105.07 101.36 98.6799C102.9 92.3999 106.39 86.0899 110.42 81.0799C112.66 75.6599 112.78 67.5799 112.83 61.7499C112.88 54.5299 112.55 46.9799 113.33 39.8099C113.81 35.4399 115.8 32.2699 118.16 28.7199C119.99 25.9799 124.5 25.8399 126.52 28.3699ZM130.66 63.1199C134.36 53.6199 135.82 42.4899 134 32.4199C133.91 31.4199 134 30.3999 134.25 29.4399C133.81 28.4899 132.44 25.6299 131.43 25.5799C130.23 25.5199 128.32 29.1299 127.83 30.0699L127.53 30.6499C128.16 33.2499 127.91 36.1399 127.64 38.7799C127.35 41.6399 126.96 44.5799 127.23 47.4499C127.4 49.2899 127.75 51.0599 128.13 52.8699C128.71 55.6599 129.27 58.4199 129.76 61.2299L129.77 61.2599V61.2899C129.72 61.6899 129.61 62.6499 129.81 63.0199C129.94 63.2999 130.38 63.1999 130.66 63.1199ZM122.66 116.09C123.5 114.69 124.65 113.72 126.22 113.26V98.6199C123.34 97.9099 121.64 96.2099 118.73 98.3099L117.89 98.9099L116.68 97.2399L117.52 96.6399C119.28 95.3699 121.01 94.8999 123.14 95.4399C124.61 95.8199 125.99 96.5599 127.51 96.7599C128.9 96.9399 130.39 96.4599 131.76 96.2499C133.6 95.9599 135.15 96.2799 135.86 98.1999L136.22 99.1699L134.29 99.8899L133.93 98.9199C133.6 98.0299 132.86 98.1699 132.09 98.2899C130.83 98.4899 129.62 98.8399 128.34 98.8599V113.3C131.78 115.78 136.06 116.15 139.3 119.1L139.65 118.95L140.51 120.34C140.86 120.91 141.3 120.59 141.76 120.33L141.86 120.28L141.97 120.24C148.96 117.47 152.05 113.62 150.15 106C147.21 100.06 145.78 93.7999 145.35 87.2199C140.58 85.0899 135.45 83.2299 130.25 82.5899C129.31 82.4699 128.2 82.6999 127.28 82.8999C125.86 83.2099 124.45 83.5799 123.02 83.8499C119.01 84.6099 115.28 84.5299 111.36 83.3899C107.86 87.9799 104.84 93.5899 103.46 99.1999C102.06 104.89 102.33 110.92 106.24 115.59C107.88 117.55 109.89 118.69 112.39 118.82C109.76 116.94 108.52 114.48 108.45 111.18L106.99 111.45L106.78 110.44C104.92 101.68 106.93 93.0199 111.27 85.2999L111.81 84.3499L113.7 85.3799L113.16 86.3399C109.25 93.2899 107.31 101.01 108.71 108.94L110.75 108.57L110.66 109.94C110.37 114.11 111.95 116.43 115.66 118.2L115.7 118.22C116.96 118.18 118.2 118.35 119.46 118.45C119.71 118.17 119.93 117.81 120.15 117.51C120.44 117.11 120.75 116.73 121.17 116.46C121.59 116.16 122.13 116.02 122.66 116.09ZM142.39 99.1799L145.03 100.21L147.29 102.63L146.02 103.81L144.03 101.68L141.28 100.6L139.4 97.9399L140.81 96.9399L142.39 99.1799ZM124.27 117.16C127.83 122.08 132.11 121.95 137.29 119.93C134.36 117.75 130.45 117.09 127.4 114.97C125.97 115.2 124.99 115.92 124.27 117.16ZM145.24 85.0899C144.96 76.7699 146.11 68.4199 147.02 60.1699C147.7 53.9699 148.4 47.0999 147.21 40.9399C146.07 35.0799 143.28 30.6999 138.24 27.4399C137.79 27.1499 137.39 27.7599 137.17 28.0699C136.4 29.1699 136.04 30.8099 136.14 32.1299C138.02 42.5999 136.49 54.1299 132.62 63.9999L132.33 64.7499L132.32 64.7599C131.75 65.7999 130.3 68.0499 128.92 66.7099C127.8 65.6199 127.59 62.8099 127.57 61.3399C127.1 58.6499 126.56 55.9799 126 53.3099C125.61 51.4399 125.24 49.5599 125.07 47.6499C124.77 44.4199 125.23 41.1999 125.54 37.9899C125.78 35.5399 126 32.6199 125.16 30.2699C124.44 28.2899 121.07 28.2399 119.95 29.9199C117.8 33.1399 115.9 36.0899 115.47 40.0399C115.1 43.4799 115.02 46.9499 114.99 50.4099C114.96 54.1899 115.01 57.9799 114.99 61.7599C114.94 67.9399 114.81 75.9099 112.5 81.6999C115.91 82.5999 119.17 82.5999 122.64 81.9499C124.94 81.5099 128.18 80.3899 130.47 80.6699C135.54 81.3199 140.55 83.0499 145.24 85.0899Z" fill="black"/>
<path id="Vector_7" fill-rule="evenodd" clip-rule="evenodd" d="M77.75 20.68C80.49 19.36 82.21 21.7501 83.69 23.7401L83.71 23.76L83.72 23.7801C85.39 27.0001 85.52 30.7501 85.04 34.2801C86.39 36.6001 87.13 39.3301 87.56 42.0301C88.2 37.2401 88.15 32.7101 86.02 28.0601C84.92 25.6701 84.5 22.6401 86.95 20.9401C88.92 19.5701 91.76 19.8101 93.84 20.7701L93.9 20.8001L93.94 20.8501C100.55 27.8201 104.88 37.0701 104.88 46.7701C104.88 53.9001 102.49 59.84 100.63 66.54C98.44 74.44 98.05 81.0301 100.3 89.0101C101.05 90.1001 101.29 91.7001 101.58 92.9701C101.93 94.5001 102.38 95.94 103.48 97.11L103.59 97.2301L103.56 97.3901C102.75 102.08 101.48 107.48 98.88 111.53C96.64 115.03 93.63 117.17 89.57 118.09C85.5 119.16 82.57 117.9 80.69 114.16C78.09 115.27 75.85 114.31 74.63 111.81C65.59 118.17 58.15 109.41 53.57 101.95L53.54 101.91L53.53 101.86C51.24 93.07 53.89 85.61 56.53 77.26C58.14 72.15 59.6 67.1201 60.6 61.8501C61.93 54.8701 62.43 47.8401 62.27 40.7401C62.17 36.4201 62.97 33.4 64.33 29.4C65.57 25.75 66.26 23.0101 65.89 19.0701L65.88 18.9901L65.91 18.9101C68.88 11.9401 74.53 17 77.75 20.68ZM83.08 33.18C83.37 30.38 83.21 27.4101 81.94 24.8601C81.41 24.1401 80.75 23.2 80.03 22.68C79.49 22.29 79.1 22.3001 78.53 22.6001C75.92 28.1101 73.65 33.7601 71.85 39.5801C69.84 46.0901 68.43 52.76 67.36 59.48L67.26 60.09C67.05 61.41 65.16 61.16 65.37 59.79L65.47 59.18C66.56 52.37 67.99 45.6201 70.02 39.0201C71.77 33.3301 73.98 27.8001 76.5 22.4101L76.34 22.2301C75.01 20.6901 72.63 18.1701 70.64 17.6001C69.23 17.2001 68.52 18.1901 67.99 19.3201C68.3 23.3101 67.56 26.3001 66.29 30.0501C65.03 33.7501 64.25 36.72 64.34 40.68C64.5 47.91 63.98 55.12 62.63 62.23C61.87 66.24 60.83 70.18 59.67 74.09L59.71 74.0801L59.96 75.1001C60.76 78.3301 62.65 80.0301 66 80.1401C71.39 79.2901 77.23 79.69 82.63 80.29L82.98 80.3301L83.24 80.5701C87.32 84.4001 91.82 85.26 97.19 84.59C96.16 78.13 96.88 72.2801 98.63 65.9701C100.41 59.5501 102.81 53.5401 102.81 46.7501C102.81 37.7101 98.79 29.0601 92.68 22.5201C91.32 21.9801 89.38 21.7601 88.13 22.6301C86.63 23.6701 87.28 25.8301 87.9 27.1901C90.56 32.9901 90.28 38.5801 89.24 44.7101L87.46 54.6901L87.43 54.7401C86.13 57.1501 84.63 59.4001 82.59 61.2801C79.69 63.5401 78.9 61.5201 79.11 58.6701L79.12 58.5501L79.2 58.4601C83.34 54.2001 78.36 39.66 83.08 33.18ZM79.94 112.36C79.79 111.94 79.66 111.51 79.53 111.08L76.75 110.09C76.58 110.25 76.4 110.41 76.23 110.57C76.93 112.35 78.13 113.14 79.94 112.36ZM81.63 59.0601C83.1 57.5601 84.26 55.8001 85.27 53.9601L85.69 48.87C85.98 45.31 84.94 41.3401 83.56 37.9801C83 40.7501 83.12 43.91 83.2 46.65C83.3 50.32 83.7 55.7801 81.63 59.0601ZM63.38 110.21C64.15 110.73 64.97 111.18 65.85 111.49C68.83 112.55 71.51 111.63 73.9 109.8L73.85 109.72L74.45 109.36C74.8 109.07 75.14 108.76 75.46 108.45L76.24 107.7L76.33 107.73C77.67 105.91 77.54 103.54 77.05 101.42L76.86 100.61L78.47 100.23L78.66 101.04C79.24 103.48 79.31 106.13 77.95 108.3L81.25 109.48L81.49 110.35C82.61 114.44 84.37 117.31 89.06 116.08L89.11 116.07C90.43 115.77 91.69 115.31 92.85 114.64C95.31 112.9 95.49 110.09 94.97 107.34L94.82 106.53L96.45 106.23L96.6 107.04C96.84 108.31 96.95 109.66 96.78 110.96C96.9 110.78 97.03 110.6 97.14 110.42C99.44 106.82 100.62 102.02 101.38 97.83C100.4 96.52 99.92 95.02 99.56 93.43C99.36 92.53 99.11 90.9001 98.58 90.1601L98.4 89.9101L98.32 89.62C98.05 88.65 97.8 87.6601 97.59 86.6701C91.67 87.4401 86.6 86.4601 82.07 82.3501C76.94 81.7901 71.35 81.41 66.25 82.24L66.15 82.2601H66.05C62.55 82.1701 59.98 80.6401 58.6 77.6001C58.57 77.7001 58.54 77.8001 58.51 77.8901C56.2 85.2101 53.67 92.24 55.23 99.99C55.64 99.71 56.12 99.5201 56.61 99.4801C56.94 98.1601 57.62 96.3501 56.76 95.1901L56.29 94.55L57.58 93.6001L58.05 94.24C59.39 96.06 58.57 97.9701 58.14 99.9101C61.93 102.61 62.21 106.11 63.38 110.21ZM61.12 108.36C60.42 105.56 59.69 103.1 57.09 101.28C56.72 101.02 56.18 101.38 55.87 101.71C57.35 104.03 59.1 106.43 61.12 108.36Z" fill="black"/>
<path id="Vector_8" fill-rule="evenodd" clip-rule="evenodd" d="M38.19 16.9199C40.92 16.3499 43.29 17.4899 45.28 19.3699C52.34 24.2799 54.74 34.8199 55.34 42.8599C56.07 52.6499 54.64 63.8699 51.15 73.0299L55.43 102.32L55.42 102.37C54.32 107.49 50.6 109.65 45.79 110.72C42.86 111.37 39.73 111.59 36.74 111.72C32.94 111.88 29.12 111.89 25.31 111.93H25.26L25.21 111.91C17.93 108.82 9.34997 103.99 6.49997 96.1099C3.34997 87.4299 8.16997 77.8899 12.96 70.8199C17.02 57.4399 16.76 43.0299 25.14 31.1899C23.84 25.9299 24.53 19.4699 28.69 15.5999C31.99 12.5499 36.1 12.7799 38.19 16.9199ZM33.68 49.2499L37.05 52.6599C38.77 47.5299 40.81 39.3999 37.38 34.7799C35.46 39.3599 33.88 44.2499 33.68 49.2499ZM25.7 109.72C29.35 109.68 33 109.67 36.65 109.51C37.24 109.48 37.83 109.46 38.42 109.42C34.67 108.32 31.64 106.18 30.6 102.15C28.13 104.7 24.94 105.81 21.39 105.89C19.71 105.93 18.14 105.65 16.75 104.93C19.62 106.91 22.81 108.48 25.7 109.72ZM14.88 103.55C14.8 103.47 14.73 103.39 14.65 103.31C13.25 101.79 12.47 99.8399 11.66 97.9699C10.83 96.0399 9.02997 95.0599 8.60997 92.7799C7.35997 85.9499 11.4 78.9499 14.26 73.0199C14.32 72.8899 14.38 72.7599 14.45 72.6299H14.41C10.21 78.9499 5.78997 87.6799 8.57997 95.3599C9.74997 98.6099 12.07 101.31 14.88 103.55ZM45.47 108.53C49.18 107.7 52.19 106.19 53.19 102.23L49.25 75.2499C43.09 76.2899 38.16 75.8899 32.05 74.5399C29.5 73.9699 26.95 73.3599 24.37 72.9799C21.86 72.6099 19.33 72.4599 16.79 72.5099C16.57 72.9799 16.35 73.4399 16.13 73.9099C13.53 79.2999 9.51997 86.2199 10.65 92.3999C10.79 93.1699 11.3 93.8399 11.77 94.4499C12.45 95.3199 13.13 96.1299 13.57 97.1499C15.26 101.09 16.49 103.93 21.34 103.82C25.16 103.74 28.26 102.32 30.4 99.0899L32.13 96.4799L32.3 99.6099C32.67 106.45 38.71 107.92 44.45 108.34L45.48 108.42L45.47 108.53ZM48.91 72.9299L48.89 72.7799L49.07 72.3099C52.46 63.3999 53.85 52.5199 53.14 43.0199C52.59 35.6899 50.44 25.6099 44.01 21.1699L43.89 21.0899L43.78 20.9899C42.31 19.5999 40.58 18.6199 38.5 19.1199L38.15 19.1999C39.97 23.6099 40.22 28.0399 38.09 32.3999C41.73 35.9599 41.71 41.4999 40.89 46.1899C39.9 51.8199 37.55 57.6399 35.2 62.8399L34.98 63.3199L34.73 62.8499C29.41 52.9299 31.52 43.1599 35.71 33.3299L36.23 31.8899L36.24 31.8699C38.26 27.9499 38.07 24.0099 36.44 20.0099C33.76 19.6699 31.76 21.2499 30.31 23.3799C28.86 25.4999 27.88 28.2399 27.3 30.7299L27.53 31.6299L27.01 32.3599C23.74 36.9499 21.79 42.1099 20.38 47.5199L20.96 49.8599C22.31 57.1499 20.72 63.5199 17.85 70.1399C20.14 70.1399 22.43 70.3099 24.7 70.6399C27.35 71.0299 29.94 71.6499 32.55 72.2299C38.39 73.5499 43.03 73.9299 48.91 72.9299ZM36.32 18.1099L36.29 18.0599C34.88 15.1099 32.43 15.1599 30.19 17.2299C27.73 19.5099 26.78 22.8999 26.75 26.1899C28.43 22.0399 31.46 17.7099 36.32 18.1099ZM19.24 52.4399C17.99 58.3699 17.09 64.3799 15.44 70.2099C15.48 70.2099 15.53 70.2099 15.57 70.1999C18.18 64.3899 19.89 58.7699 19.24 52.4399ZM34.96 58.1699C35.42 57.0699 35.86 55.9599 36.27 54.8499L33.73 52.2799C33.89 54.2999 34.3 56.2599 34.96 58.1699Z" fill="black"/>
<path id="Vector_9" fill-rule="evenodd" clip-rule="evenodd" d="M34.0301 114.34C10.6901 99.7101 -3.82992 116.5 4.99008 144.22C5.24008 160.01 -1.95992 174.39 0.520082 190.8C2.14008 201.5 5.91009 204.51 9.40009 197.36C9.96009 196.21 10.5101 195.05 11.0401 193.87L25.4201 166.75C26.1401 165.39 24.3801 164.83 23.7901 165.93L18.7701 175.39C21.2101 169.55 23.7601 163.9 26.7801 158.9C30.4501 162.87 20.3501 180.83 13.7301 192.54C8.92009 201.04 11.7601 203.85 19.2501 199.82C33.6901 192.05 44.1801 176.39 49.8701 151.12C69.4701 123.38 55.3801 107.29 34.0301 114.34ZM9.02008 193.84L9.00009 193.83L9.19009 193.48C11.6801 188.04 13.8701 182.44 16.1501 176.91C18.8001 170.47 21.6001 163.92 25.2101 157.95L26.4901 155.84L28.1601 157.65C31.4201 161.18 27.4401 169.98 25.8201 173.58C22.7701 180.37 19.0201 186.97 15.3601 193.45C14.5701 194.85 13.6801 196.6 13.3501 198.19C13.2901 198.45 13.1301 199.45 13.3301 199.69C13.5301 199.85 14.3401 199.74 14.5601 199.7C15.8501 199.47 17.2601 198.8 18.4101 198.18C35.8601 188.8 43.9701 169.07 48.1001 150.71L48.1801 150.35L48.2701 150.22C41.8601 144.34 34.8601 149.45 27.4901 148.06C23.8601 147.71 20.8201 145.71 17.5201 144.38C13.8201 142.89 10.8101 142.85 7.27008 144.88L6.87009 145.11C6.85009 152.76 5.19009 160.13 3.76009 167.61C2.30009 175.26 1.20008 182.72 2.38008 190.51C2.72008 192.77 3.26009 195.46 4.22009 197.54C4.38009 197.88 5.14009 199.32 5.58009 199.38C6.25009 199.35 7.52009 197.02 7.76009 196.53C8.18009 195.65 8.60008 194.75 9.02008 193.84ZM6.66009 143.35C10.5401 141.19 14.0101 141.24 18.1001 142.88C21.1801 144.12 24.3101 146.14 27.6601 146.45H27.7001L27.7401 146.46C31.2301 147.13 35.0001 146.11 38.5001 145.8C42.6901 145.42 46.0701 146.09 49.1901 148.88C52.5601 143.92 55.6501 138.14 56.8601 132.3C57.6601 128.44 57.6901 124.11 55.7001 120.59C54.0001 117.58 51.1601 115.79 47.8501 115.01C43.5401 113.99 38.7701 114.72 34.6201 116.09L34.1001 116.26C35.0501 118.65 34.2601 120.25 32.6501 121.5C31.9001 119.19 31.4601 117.56 33.4601 116.15L33.0601 115.9C26.1101 111.55 15.4401 107.56 8.82009 114.66C6.00009 117.68 4.76008 121.93 4.38008 125.97C3.84008 131.74 4.94009 137.85 6.66009 143.35Z" fill="black"/>
<path id="Vector_10" fill-rule="evenodd" clip-rule="evenodd" d="M86.21 120.29C79.97 117.66 75.6 109.78 65.37 115.15C61.37 116.8 58.44 120.14 57.33 126.33C62.88 145.91 62.73 162.4 56.9 175.82C54.44 184.74 53.75 192.55 55.08 199.09C57.1 210.65 62.42 211.66 65.7 203.42C71.27 189.41 77.31 172.13 84.11 164.62C87.7 173.09 78.6 189.85 76.13 205.7C74.38 214.71 79.88 215.37 85.8 210.12C105.62 189.57 98.93 160.34 109.73 142.36C118.7 127.43 103.89 105.89 86.21 120.29ZM100.22 168.35C97.16 179.21 93.83 190.12 86.87 198.74L86.43 199.28C85.52 200.4 84.16 199.53 85.18 198.27L85.62 197.73C90.77 191.36 93.85 183.62 96.3 175.88C98.85 167.81 100.75 159.55 103.61 151.58L103.88 150.82C104.08 150.17 104.29 149.53 104.52 148.89C91.4 141.98 77.19 145.8 63.38 148.14L63.28 148.16C63.85 157.82 62.71 167.49 58.82 176.5C56.9 183.49 55.61 191.51 57.07 198.7L57.08 198.75C57.43 200.75 57.98 203.06 58.93 204.87C59.23 205.44 59.9 206.55 60.57 206.77C60.94 206.89 61.35 206.57 61.6 206.34C62.58 205.47 63.35 203.88 63.82 202.68C66.72 195.38 69.45 187.99 72.59 180.78C75.08 175.08 78.42 167.9 82.61 163.27L84.74 160.92L85.98 163.83C88.31 169.32 85.95 177.51 84.34 182.97C82.1 190.56 79.35 198.17 78.13 206.02L78.12 206.06L78.11 206.1C77.93 207.04 77.34 210.89 78.73 211.35C80.31 211.88 83.27 209.66 84.4 208.67C93.56 199.14 96.9 187.61 99.15 174.94C99.51 172.81 99.86 170.6 100.22 168.35ZM59.4 126.24C61.2 132.67 62.55 139.37 63.12 146.1C77.4 143.68 91.68 139.94 105.24 146.96C106.02 144.99 106.93 143.11 107.99 141.34C111.63 135.28 111.16 127.04 106.45 121.67C104.38 119.32 101.65 117.78 98.49 117.59C94.41 117.34 90.57 119.36 87.5 121.87L86.56 122.64L85.44 122.17C82.08 120.75 79.55 118.17 76.37 116.54C72.83 114.71 69.79 115.14 66.32 116.96L66.24 117L66.15 117.04C62.07 118.7 60.23 122.1 59.4 126.24Z" fill="black"/>
<path id="Vector_11" fill-rule="evenodd" clip-rule="evenodd" d="M132.11 123.14C128.02 120.62 123.3 119.96 116.9 124.39C109.73 126.13 109.72 142.39 114.93 163.84C112.27 183.12 101.01 205.43 106.95 221.68C112.57 223.3 115.93 220.41 117.53 213.98C121.55 200.38 127.67 189.09 136.05 180.29C141.99 190.33 131.25 207.9 128.85 221.7C127.63 228.7 131.27 230.11 135.79 226.59C152.35 213.69 158.52 190.76 157.65 161.26C167.03 144.87 167.86 131.62 159.88 126.15C154.41 121.5 147.78 121.46 140.3 124.86L132.11 123.14ZM124.66 127.92C123.75 133.66 120.58 139.31 121.8 145.07L122.01 146.05C122.28 147.32 120.33 147.79 120.05 146.46L119.84 145.48C119.11 142.02 119.71 138.82 120.64 135.49C121.34 132.99 122.21 130.49 122.64 127.92C121 127.76 119.39 127.18 117.86 126.02L117.69 126.14L117.35 126.22C113.79 127.08 113.26 133.97 113.16 136.78C113.02 140.69 113.38 144.73 113.91 148.61C114.16 150.46 114.46 152.31 114.8 154.16L114.84 154.15C118.81 153.59 121.94 154.98 125.33 156.85C128.94 158.85 131.96 160.64 136.12 161.36C140.06 162.05 143.98 162.47 147.94 161.81C149.25 161.59 150.53 161.28 151.83 161.01C153.21 160.73 154.56 160.54 155.95 160.44L156.03 160.3C159.5 154.23 162.96 146.54 163.41 139.47C163.69 134.98 162.75 130.37 158.83 127.69L158.75 127.63L158.68 127.57C158.43 127.35 158.17 127.15 157.91 126.96C153.1 128.16 148.76 128.75 144.22 127.69C144.85 134.16 145.28 140.53 143.61 146.92L143.4 147.72C143.09 148.92 141.5 148.47 141.81 147.3L142.02 146.5C143.69 140.13 143.16 133.68 142.52 127.21C141.99 127.04 141.46 126.85 140.92 126.63L140.54 126.8L132.79 125.19C130.16 126.5 127.39 127.68 124.66 127.92ZM155.8 162.22C154.58 162.31 153.38 162.49 152.17 162.74C150.85 163.01 149.55 163.33 148.22 163.55C144.04 164.25 139.95 163.83 135.81 163.1C131.41 162.33 128.28 160.5 124.47 158.39C121.46 156.73 118.65 155.41 115.12 155.89C115.61 158.4 116.17 160.91 116.77 163.39L116.86 163.74L116.81 164.1C115.4 174.31 111.97 184.32 109.56 194.34C107.64 202.33 105.85 212.01 108.41 220.09C112.82 220.92 114.64 217.79 115.7 213.53L115.71 213.49L115.72 213.45C119.49 200.7 125.45 188.68 134.68 178.99L136.4 177.18L137.67 179.33C141.3 185.48 139.32 193.75 137.38 200.14C136.23 203.93 134.87 207.66 133.61 211.42C132.46 214.86 131.33 218.44 130.71 222.03C130.57 222.85 130.19 225.91 131.13 226.47C131.96 226.96 134.03 225.56 134.63 225.1C143.01 218.57 148.27 209.62 151.46 199.58C155.22 187.73 156.1 174.59 155.8 162.22ZM119.33 125.06C122.87 127.37 126.92 126.15 130.61 124.44C126.62 122.21 123.06 122.82 119.33 125.06ZM143.14 125.71C147.46 127.06 151.53 126.74 155.96 125.74C151.92 123.68 147.51 124.09 143.14 125.71Z" fill="black"/>
<path id="Vector_12" fill-rule="evenodd" clip-rule="evenodd" d="M195.48 164.75C205.3 140.73 204.31 123.48 183.46 125.32C166.97 126.78 161.12 136.94 165.78 151.13L169.85 163.33C172.4 184.12 172.21 204.58 173.38 224.54C174.22 238.78 180.06 238.35 184.36 230.84C193.8 214.35 191.77 186.78 195.48 164.75ZM171.61 162.03C178.84 164.57 185.73 165.3 193.24 163.18L193.92 162.99C196.98 155.33 200.75 143.77 198.92 135.8C197.17 128.17 190.68 126.78 183.63 127.4C169.49 128.65 163.17 136.72 167.75 150.46L171.61 162.03ZM193.3 165.07C185.95 167.04 179.12 166.44 172.04 164.11C174.41 184.18 174.28 204.29 175.46 224.42C175.6 226.76 175.91 229.62 176.78 231.82C177.01 232.4 177.59 233.64 178.25 233.87C178.69 234.02 179.35 233.6 179.68 233.35C180.83 232.49 181.83 231.03 182.53 229.8C187.46 221.19 189.03 209.41 189.98 199.67C191.1 188.18 191.44 176.47 193.3 165.07Z" fill="black"/>
<path id="Vector_13" fill-rule="evenodd" clip-rule="evenodd" d="M222.5 124.39C210.38 126.69 201.68 131.42 202.87 143.19C203.02 149.87 204.06 156.33 205.83 163.01C206.79 179.19 208.74 194.22 209.56 208.13C210.01 215.81 207.13 223.53 207.34 231.66C207.47 236.77 211.55 236.76 215.18 231.39C220.99 222.8 224.21 212.07 226.42 200.48C230.47 181.45 232 169.4 231.91 163.3C242.87 143.97 240.14 130.82 222.5 124.39ZM207.86 163.09C210.6 166.35 214.51 169.31 219 169.4C223.64 169.49 227.43 166.46 230.22 162.91V162.86L230.45 162.46C239.13 147.15 240.88 133.12 222.36 126.15C217.78 127.05 212.38 128.55 208.78 131.55C205.19 134.53 204.1 138.44 204.57 143.02L204.58 143.09V143.16C204.73 149.77 205.79 156.2 207.48 162.58L207.5 162.66L207.86 163.09ZM230.2 165.65C227.22 168.87 223.41 171.28 218.91 171.19C214.51 171.1 210.66 168.68 207.7 165.63C208.16 172.51 208.79 179.38 209.44 186.25C210.12 193.5 210.83 200.75 211.26 208.02C211.73 215.97 208.84 223.67 209.04 231.6C209.05 232.06 209.15 233.76 209.91 233.74C211.28 233.71 213.1 231.42 213.78 230.42C219.77 221.57 222.78 210.53 224.76 200.15L224.77 200.12C226.41 192.41 227.93 184.61 229.05 176.8C229.55 173.24 230.07 169.35 230.2 165.65Z" fill="black"/>
<path id="Vector_14" fill-rule="evenodd" clip-rule="evenodd" d="M270.53 166.84C274.9 149.02 276.7 138.65 271.89 131.29C264.37 122.11 251.1 120.47 240.79 133.82C236 140.03 240.05 152.38 244.1 170.62L244.09 171.28C243.87 186.72 243.99 201.46 246.41 213.9C248.39 224.06 250.22 234.18 250.11 244.54C250.06 249.56 255.67 248.89 257.19 244.62C265.94 220.03 269.45 194.24 270.53 166.84ZM246.17 170.57C254.66 178.43 262.02 174.42 268.18 166.04L268.75 165.26L268.78 165.28C269.66 161.67 270.51 158.04 271.23 154.4C271.84 151.31 272.37 148.14 272.59 145C272.89 140.69 272.61 136.23 270.22 132.51C267.03 128.67 262.5 126.07 257.42 126.17C251.2 126.29 246.07 130.35 242.42 135.08C240 138.21 240.62 143.77 241.17 147.4C241.68 150.81 242.44 154.22 243.21 157.59C244.17 161.79 245.18 165.97 246.11 170.18L246.16 170.42L246.17 170.57ZM268.37 168.94C262.07 176.61 254.42 179.79 246.13 173.09C246.05 179.83 246.03 186.58 246.31 193.32C246.59 200.05 247.15 206.88 248.43 213.5C250.42 223.75 252.28 234.08 252.17 244.56C252.16 245.13 252.2 246.04 252.96 246C254.02 245.95 254.91 244.85 255.24 243.92C263.85 219.76 267.24 194.45 268.37 168.94Z" fill="black"/>
<path id="Vector_15" fill-rule="evenodd" clip-rule="evenodd" d="M282.09 129.77C274.1 129.69 271.25 133.64 274.41 147.64L278.66 166.63L283.25 227.01C283.37 246.26 290.66 248.7 295.53 229.06C299.75 210.45 298.45 190.49 299.94 168.89L305.32 143.41C307.84 134.7 305.96 130.01 297.81 129.93L282.09 129.77ZM280.69 165.6C285.45 171.72 292.25 176.19 297.69 168.15L298.22 167.36L298.24 167.37L303.4 142.92L303.42 142.85C304.09 140.53 304.99 136.62 303.81 134.33C302.73 132.24 299.89 131.92 297.79 131.9L282.07 131.74C279.77 131.72 276.99 131.93 275.86 134.27C274.32 137.47 275.61 143.92 276.34 147.2L280.36 165.19L280.69 165.6ZM297.82 171.06C295.68 173.4 292.9 174.86 289.52 174.28C286.16 173.71 283.16 171.3 280.81 168.7L285.23 226.91V226.98C285.25 230.35 285.47 234.3 286.41 237.55C286.57 238.11 287.38 240.49 288.05 240.68C288.69 240.64 289.9 238.7 290.16 238.23C291.76 235.4 292.84 231.71 293.61 228.59C295.73 219.24 296.41 209.58 296.79 200.01C297.16 190.35 297.24 180.71 297.82 171.06Z" fill="black"/>
<path id="Vector_16" fill-rule="evenodd" clip-rule="evenodd" d="M333.03 140.77C333.67 133.67 334.46 129.27 327.15 129.88L312.03 129.26C305.27 131.31 303.86 135.2 305.61 146.34L309.12 168.71C308.8 192.51 311.99 214.5 313.42 238.03C313.9 245.95 322.55 238.64 323.37 231.15C325.7 209.84 327.23 188.68 328 167.68C330.35 159.04 332.19 150.16 333.03 140.77ZM310.77 168.49C315.86 173.72 320.97 172.59 326.3 168.18L326.32 167.62L326.33 167.43L326.38 167.24C328.76 158.5 330.55 149.66 331.36 140.63C331.53 138.72 332.07 134.76 331.48 132.97C330.92 131.28 328.75 131.43 327.29 131.55L327.19 131.56L312.25 130.95C310.03 131.65 308.06 132.66 307.2 134.98C306.08 137.99 306.78 142.99 307.27 146.08L310.77 168.49ZM326.22 170.32C321 174.2 315.77 175.02 310.77 170.73C310.66 193.21 313.72 215.52 315.09 237.93C315.11 238.2 315.27 239.65 315.62 239.77C316 239.9 316.98 239.25 317.26 239.04C319.55 237.29 321.4 233.84 321.71 230.96C323.9 210.81 325.42 190.58 326.22 170.32Z" fill="black"/>
<path id="Vector_17" fill-rule="evenodd" clip-rule="evenodd" d="M365.55 26.4899C364.32 17.8399 359.61 17.07 354.95 22.82C342.95 41.8 341.3 63.1399 341.24 83.5499C340.61 84.5199 340.15 85.59 339.95 86.76C338.49 95.21 327.71 129.51 343.72 129.93L368.04 128.8C373.79 128.53 375.91 123.24 376.36 118.23C377.22 108.51 374.85 99.49 372.36 90.23C372.14 89.42 371.88 88.64 371.59 87.89C375.13 65.67 367.64 46.9899 365.55 26.4899ZM342.77 81.6999C342.94 61.3499 344.99 41.4599 356.18 23.7099C357.17 22.5099 359.37 20.21 361.11 20.71C363.03 21.27 363.8 25.0199 364.04 26.6699C365.1 37.0399 367.58 47.1499 369.28 57.4099C370.85 66.8799 371.59 75.9999 370.39 85.4299C367.27 79.9699 361.77 76.8399 354.89 77.0299C351.5 77.1199 347.96 78.0699 345.08 79.8899C344.26 80.4099 343.47 81.0199 342.77 81.6999ZM343.7 128.24C340.51 128.14 338.73 126.4 337.72 123.48C336.46 119.82 336.62 114.99 336.98 111.16C337.42 106.4 338.33 101.68 339.36 97.0199C339.79 95.0699 340.25 93.12 340.71 91.17C341.03 89.8 341.37 88.43 341.6 87.04C342.03 84.56 343.92 82.6099 345.98 81.3099C348.6 79.6499 351.85 78.7899 354.93 78.7099C362.86 78.4999 368.67 83.06 370.71 90.67C373.12 99.64 375.5 108.7 374.66 118.08C374.3 122.14 372.77 126.89 367.94 127.11L343.7 128.24Z" fill="black"/>
<path id="Vector_18" fill-rule="evenodd" clip-rule="evenodd" d="M383.1 129.52C389.65 130.66 396.1 130.2 402.44 128.11C406.72 126.44 408.95 123.02 409.77 118.57C410.67 110.03 408.66 100.73 406.27 92.5799C406.25 92.5099 406.23 92.4499 406.21 92.3799C406.69 81.1799 404.53 69.9399 402.74 58.9399C400.9 47.6499 399.46 36.0199 401.68 24.6699L401.7 24.5899L401.69 24.5099C400.63 18.5399 396.94 18.1099 392.86 22.0199L392.83 22.0499L392.81 22.0799C386.6 31.6499 384.55 45.3099 383.36 56.4899C382.03 69.1099 382.02 81.8499 380.35 94.4299C380.19 94.9199 380.05 95.4199 379.92 95.9199C377.05 104.76 375.83 114.21 376.32 123.5C376.53 127.41 379.44 129.32 383.1 129.52ZM382.62 89.5899C383.78 78.6499 384.1 67.6299 385.26 56.6799C386.4 45.8699 388.36 32.5499 394.3 23.2699C395.11 22.5099 396.69 21.2599 397.85 21.3799C399.05 21.5099 399.56 23.5699 399.75 24.5699C397.55 36.0599 398.98 47.8099 400.85 59.2399C402.44 68.9599 404.45 78.7599 404.55 88.6399C402.23 84.9899 398.31 82.7999 393.92 82.8899C389.13 82.9999 385.16 85.7199 382.62 89.5899ZM407.86 118.29C407.17 122 405.4 124.88 401.78 126.3C395.8 128.27 389.62 128.7 383.41 127.62L383.31 127.6L383.21 127.59C380.54 127.44 378.38 126.29 378.23 123.38C377.75 114.32 378.92 105.11 381.74 96.4799L381.76 96.4299L381.77 96.3799C383.2 90.6599 387.14 85.2399 393.47 84.8199C398.78 84.4699 403.05 88.0699 404.41 93.0899C406.74 101.02 408.72 110.04 407.86 118.29Z" fill="black"/>
<path id="Vector_19" fill-rule="evenodd" clip-rule="evenodd" d="M445.48 92.3001C445.37 85.9001 444.9 79.4701 444.3 73.1001C443.64 66.0901 442.82 59.1001 441.97 52.1101C440.3 38.4001 438.42 24.5901 437.5 10.8001C437.25 7.11008 434.08 4.66008 431.8 2.09008C429.5 -0.509923 427.88 -0.399923 426.5 2.84008C420.66 16.5001 418.67 31.9501 417.52 46.6501C416.32 62.1201 416.07 77.7301 414.08 93.1201C414.05 93.1801 414.03 93.2401 414 93.3001C411.38 99.9501 408.49 108.16 410.08 115.31C412.45 125.98 420.85 130.04 430.39 133.13L430.48 133.16L430.57 133.12C437.9 129.96 446.97 124.99 449.73 116.98C451.27 112.52 451.24 108.44 449.93 103.94C448.78 99.9701 446.85 96.2301 445.48 92.3001ZM443.14 87.6301C440.05 83.2501 435.29 81.2201 429.92 81.7301C424.96 82.2001 420.08 84.8201 416.85 88.6401C418.34 74.8301 418.65 60.9201 419.72 47.0701C420.84 32.5101 422.76 17.2401 428.55 3.71009C428.67 3.43009 428.92 2.89009 429.15 2.57009C429.49 2.81009 429.96 3.30008 430.18 3.55008C431.96 5.55008 435.14 8.11008 435.33 10.9501C436.26 24.8101 438.13 38.5901 439.81 52.3801C440.66 59.3501 441.48 66.3201 442.13 73.3001C442.56 78.0701 442.93 82.8501 443.14 87.6301ZM430.4 131.13C421.76 128.28 414.12 124.58 411.97 114.91C410.48 108.21 413.36 100.21 415.8 94.0201C417.98 88.4901 423.76 84.4401 429.58 83.6901C436.46 82.8001 441.44 86.4901 443.66 92.8901C446.51 101.08 451.02 107.37 447.93 116.37C445.44 123.59 436.99 128.24 430.4 131.13Z" fill="black"/>
<path id="Vector_20" fill-rule="evenodd" clip-rule="evenodd" d="M479.3 90.5001C477.65 73.6201 476.51 56.6901 474.17 39.8801L474.2 39.7701C475.49 34.8301 476.52 28.4701 475.3 23.4501C474.66 20.7901 472.97 17.6601 469.82 17.9101C468.91 16.5801 467.34 15.5001 465.67 15.7601C463.62 16.0801 462.78 18.1601 462.57 19.9901C461.23 31.6801 460.36 43.3801 459.51 55.1101C458.72 66.0001 457.9 76.8901 456.53 87.7201C454.76 94.0901 452.68 100.31 450.13 106.43L450.11 106.47L450.37 112.39L450.38 112.42C454.3 123.04 460.84 128.53 472.07 129.92C474.59 130.23 477.81 127.86 479.55 126.26C482.22 123.82 484.63 120.5 485.81 117.06L485.82 117.03L485.93 105.71L485.92 105.68C484.43 100.36 482.23 95.2001 479.3 90.5001ZM458.27 86.9201C459.53 76.7101 460.31 66.4501 461.06 56.1901C461.94 44.1701 462.82 32.1501 464.18 20.1801C464.7 15.6001 468.5 17.2201 469.21 20.6301C473.86 43.0601 475.3 65.9101 477.48 88.6601C471.84 83.7501 464.92 84.3701 458.27 86.9201ZM471.04 19.4101C472.72 19.9901 473.58 22.2001 473.96 23.7701C474.74 27.0001 474.22 29.5101 473.64 32.5501L471.04 19.4101ZM477.91 91.4601C480.7 95.9501 482.8 100.87 484.25 105.95C484.85 109.54 484.91 113.15 484.14 116.72C483.03 119.8 480.83 122.8 478.41 125.01C477.09 126.21 474.15 128.47 472.28 128.24C461.74 126.94 455.75 121.91 452.04 112.03C451.41 110.35 451.14 108.52 451.81 106.81C454.1 100.91 456.25 94.9601 457.97 88.8701C465.07 85.9301 472.35 85.2001 477.91 91.4601Z" fill="black"/>
<path id="Vector_21" fill-rule="evenodd" clip-rule="evenodd" d="M495.4 35.17C496.75 26.87 502.68 31.16 504.16 36.34C510.26 53.94 508.84 78.01 512.96 96.39C513.35 97.92 513.72 99.45 514.12 100.97C514.98 104.32 515.94 107.6 517.2 110.82C517.69 112.07 517.95 114.94 517.97 116.26C518 118.54 517.63 121.62 515.48 122.9C513.7 123.96 511.95 125.04 510.19 126.13C509.17 126.76 508.11 127.43 507.04 127.96C505.24 128.86 504 128.92 502 128.85C495.53 128.62 487.28 124.43 485.59 117.67C483.85 110.72 484.61 104.19 487.87 97.85C487.2 77.5 492.93 55.63 495.4 35.17ZM512.97 96.39L510.45 93.6L510.48 93.69C511.24 96.23 511.83 98.82 512.49 101.39C513.36 104.78 514.34 108.15 515.63 111.42C516.37 113.65 516.99 120.04 514.62 121.45C512.84 122.51 511.08 123.6 509.31 124.69C508.32 125.3 507.33 125.93 506.29 126.45C504.76 127.21 503.74 127.23 502.07 127.17C496.35 126.97 488.74 123.25 487.24 117.27C485.56 110.57 486.36 104.29 489.61 98.19C489.74 97.95 489.88 97.72 490.02 97.5C490.07 97.43 490.12 97.37 490.16 97.3C490.91 96.22 491.83 95.37 492.88 94.49C494.46 93.17 496.83 90.63 499.01 90.64C502.91 90.66 506.92 91.73 510.37 93.55L510.45 93.59L510.46 93.6L512.97 96.39ZM510.15 91.56C510.06 91.11 509.98 90.67 509.89 90.22L508.89 83.68C508.09 77.36 507.72 70.96 507.24 64.64C506.53 55.37 505.6 45.74 502.54 36.91L502.52 36.87L502.51 36.82C502.07 35.28 500.73 32.91 499.14 32.32C498.81 32.2 498.56 32.17 498.29 32.42C497.61 33.02 497.26 34.56 497.12 35.42C495.86 45.86 493.78 56.18 492.11 66.56C490.59 76.03 489.38 85.65 489.57 95.26L489.61 95.25C490.25 94.52 490.98 93.87 491.78 93.19C493.82 91.48 496.15 88.93 499 88.94C502.79 88.97 506.69 89.92 510.15 91.56Z" fill="black"/>
<path id="Vector_22" fill-rule="evenodd" clip-rule="evenodd" d="M543.56 28.3699C542.57 26.5299 540.77 23.5299 538.57 23.6399C536.88 23.7199 535.62 25.6099 534.84 27.0599C533.91 25.6099 532.37 24.5299 530.68 25.6299C518.34 33.6299 519.5 47.5199 520.93 60.4099C522.6 75.5399 525.09 90.9799 517.93 105.23L517.92 105.25L517.91 105.27C515.69 113.91 519.06 118.95 527.32 122.24C528.84 123.06 530.3 123.12 531.31 121.65C537.77 124.31 543.35 124.46 547.66 118.28C547.67 118.27 547.69 118.23 547.71 118.23C548.12 118.26 549.07 120.7 550.4 120.62C551.97 120.53 555.15 119.95 556.45 120.93L556.51 120.97H556.58C560.19 121.16 563.18 119.74 565.5 116.97C569.88 111.74 570.3 105.07 568.72 98.6799C567.18 92.3999 563.69 86.0899 559.66 81.0799C557.42 75.6599 557.3 67.5799 557.25 61.7499C557.2 54.5299 557.53 46.9799 556.75 39.8099C556.27 35.4399 554.28 32.2699 551.92 28.7199C550.09 25.9799 545.58 25.8399 543.56 28.3699ZM539.43 63.1199C535.73 53.6199 534.27 42.4899 536.09 32.4199C536.18 31.4199 536.09 30.3999 535.84 29.4399C536.28 28.4899 537.65 25.6299 538.66 25.5799C539.86 25.5199 541.77 29.1299 542.26 30.0699L542.56 30.6499C541.93 33.2499 542.18 36.1399 542.45 38.7799C542.74 41.6399 543.13 44.5799 542.86 47.4499C542.69 49.2899 542.34 51.0599 541.96 52.8699C541.38 55.6599 540.82 58.4199 540.33 61.2299L540.32 61.2599V61.2899C540.37 61.6899 540.48 62.6499 540.28 63.0199C540.14 63.2999 539.71 63.1999 539.43 63.1199ZM547.42 116.09C546.58 114.69 545.43 113.72 543.86 113.26V98.6199C546.74 97.9099 548.44 96.2099 551.35 98.3099L552.19 98.9099L553.4 97.2399L552.56 96.6399C550.8 95.3699 549.07 94.8999 546.94 95.4399C545.47 95.8199 544.09 96.5599 542.57 96.7599C541.18 96.9399 539.69 96.4599 538.32 96.2499C536.48 95.9599 534.93 96.2799 534.22 98.1999L533.86 99.1699L535.79 99.8899L536.15 98.9199C536.48 98.0299 537.22 98.1699 537.99 98.2899C539.25 98.4899 540.46 98.8399 541.74 98.8599V113.3C538.3 115.78 534.02 116.15 530.78 119.1L530.43 118.95L529.57 120.34C529.22 120.91 528.78 120.59 528.32 120.33L528.22 120.28L528.11 120.24C521.12 117.47 518.03 113.62 519.93 106C522.87 100.06 524.3 93.7999 524.73 87.2199C529.5 85.0899 534.63 83.2299 539.83 82.5899C540.77 82.4699 541.88 82.6999 542.8 82.8999C544.22 83.2099 545.63 83.5799 547.06 83.8499C551.07 84.6099 554.8 84.5299 558.72 83.3899C562.22 87.9799 565.24 93.5899 566.62 99.1999C568.02 104.89 567.75 110.92 563.84 115.59C562.2 117.55 560.19 118.69 557.69 118.82C560.32 116.94 561.56 114.48 561.63 111.18L563.09 111.45L563.3 110.44C565.16 101.68 563.15 93.0199 558.81 85.2999L558.27 84.3499L556.38 85.3799L556.92 86.3399C560.83 93.2899 562.77 101.01 561.37 108.94L559.33 108.57L559.42 109.94C559.71 114.11 558.13 116.43 554.42 118.2L554.38 118.22C553.12 118.18 551.88 118.35 550.62 118.45C550.37 118.17 550.15 117.81 549.93 117.51C549.64 117.11 549.33 116.73 548.91 116.46C548.49 116.16 547.96 116.02 547.42 116.09ZM527.7 99.1799L525.06 100.21L522.8 102.63L524.07 103.81L526.06 101.68L528.81 100.6L530.69 97.9399L529.28 96.9399L527.7 99.1799ZM545.81 117.16C542.25 122.08 537.97 121.95 532.79 119.93C535.72 117.75 539.63 117.09 542.68 114.97C544.12 115.2 545.09 115.92 545.81 117.16ZM524.85 85.0899C525.13 76.7699 523.98 68.4199 523.07 60.1699C522.39 53.9699 521.69 47.0999 522.88 40.9399C524.02 35.0799 526.81 30.6999 531.85 27.4399C532.3 27.1499 532.7 27.7599 532.92 28.0699C533.69 29.1699 534.05 30.8099 533.95 32.1299C532.07 42.5999 533.6 54.1299 537.47 63.9999L537.76 64.7499L537.77 64.7599C538.34 65.7999 539.79 68.0499 541.17 66.7099C542.29 65.6199 542.5 62.8099 542.52 61.3399C542.99 58.6499 543.53 55.9799 544.09 53.3099C544.48 51.4399 544.85 49.5599 545.02 47.6499C545.32 44.4199 544.86 41.1999 544.55 37.9899C544.31 35.5399 544.09 32.6199 544.93 30.2699C545.65 28.2899 549.02 28.2399 550.14 29.9199C552.29 33.1399 554.19 36.0899 554.62 40.0399C554.99 43.4799 555.07 46.9499 555.1 50.4099C555.13 54.1899 555.08 57.9799 555.1 61.7599C555.15 67.9399 555.28 75.9099 557.59 81.6999C554.18 82.5999 550.92 82.5999 547.45 81.9499C545.15 81.5099 541.91 80.3899 539.62 80.6699C534.54 81.3199 529.54 83.0499 524.85 85.0899Z" fill="black"/>
<path id="Vector_23" fill-rule="evenodd" clip-rule="evenodd" d="M592.34 20.68C589.6 19.36 587.88 21.7501 586.4 23.7401L586.38 23.76L586.37 23.7801C584.7 27.0001 584.57 30.7501 585.05 34.2801C583.7 36.6001 582.96 39.3301 582.53 42.0301C581.89 37.2401 581.94 32.7101 584.07 28.0601C585.17 25.6701 585.59 22.6401 583.14 20.9401C581.17 19.5701 578.33 19.8101 576.25 20.7701L576.19 20.8001L576.15 20.8501C569.54 27.8201 565.21 37.0701 565.21 46.7701C565.21 53.9001 567.6 59.84 569.46 66.54C571.65 74.44 572.04 81.0301 569.79 89.0101C569.04 90.1001 568.8 91.7001 568.51 92.9701C568.16 94.5001 567.71 95.94 566.61 97.11L566.5 97.2301L566.53 97.3901C567.34 102.08 568.61 107.48 571.21 111.53C573.45 115.03 576.46 117.17 580.52 118.09C584.59 119.16 587.52 117.9 589.4 114.16C592 115.27 594.24 114.31 595.46 111.81C604.5 118.17 611.94 109.41 616.52 101.95L616.55 101.91L616.56 101.86C618.85 93.07 616.2 85.61 613.56 77.26C611.95 72.15 610.49 67.1201 609.49 61.8501C608.16 54.8701 607.66 47.8401 607.82 40.7401C607.92 36.4201 607.12 33.4 605.76 29.4C604.52 25.75 603.83 23.0101 604.2 19.0701L604.21 18.9901L604.18 18.9101C601.2 11.9401 595.56 17 592.34 20.68ZM587 33.18C586.71 30.38 586.87 27.4101 588.14 24.8601C588.67 24.1401 589.33 23.2 590.05 22.68C590.59 22.29 590.98 22.3001 591.55 22.6001C594.16 28.1101 596.43 33.7601 598.23 39.5801C600.24 46.0901 601.65 52.76 602.72 59.48L602.82 60.09C603.03 61.41 604.92 61.16 604.71 59.79L604.61 59.18C603.52 52.37 602.09 45.6201 600.06 39.0201C598.31 33.3301 596.1 27.8001 593.58 22.4101L593.74 22.2301C595.07 20.6901 597.45 18.1701 599.44 17.6001C600.85 17.2001 601.56 18.1901 602.09 19.3201C601.78 23.3101 602.52 26.3001 603.79 30.0501C605.05 33.7501 605.83 36.72 605.74 40.68C605.58 47.91 606.1 55.12 607.45 62.23C608.21 66.24 609.25 70.18 610.41 74.09L610.37 74.0801L610.12 75.1001C609.32 78.3301 607.43 80.0301 604.08 80.1401C598.69 79.2901 592.85 79.69 587.45 80.29L587.1 80.3301L586.84 80.5701C582.76 84.4001 578.26 85.26 572.89 84.59C573.92 78.13 573.2 72.2801 571.45 65.9701C569.67 59.5501 567.27 53.5401 567.27 46.7501C567.27 37.7101 571.29 29.0601 577.4 22.5201C578.76 21.9801 580.7 21.7601 581.95 22.6301C583.45 23.6701 582.8 25.8301 582.18 27.1901C579.52 32.9901 579.8 38.5801 580.84 44.7101L582.62 54.6901L582.65 54.7401C583.95 57.1501 585.45 59.4001 587.49 61.2801C590.39 63.5401 591.18 61.5201 590.97 58.6701L590.96 58.5501L590.88 58.4601C586.75 54.2001 591.72 39.66 587 33.18ZM590.14 112.36C590.29 111.94 590.42 111.51 590.55 111.08L593.33 110.09C593.5 110.25 593.68 110.41 593.85 110.57C593.15 112.35 591.95 113.14 590.14 112.36ZM588.46 59.0601C586.99 57.5601 585.83 55.8001 584.82 53.9601L584.4 48.87C584.11 45.31 585.15 41.3401 586.53 37.9801C587.09 40.7501 586.97 43.91 586.89 46.65C586.78 50.32 586.39 55.7801 588.46 59.0601ZM606.7 110.21C605.93 110.73 605.11 111.18 604.23 111.49C601.25 112.55 598.57 111.63 596.18 109.8L596.23 109.72L595.63 109.36C595.28 109.07 594.94 108.76 594.62 108.45L593.84 107.7L593.75 107.73C592.41 105.91 592.54 103.54 593.03 101.42L593.22 100.61L591.61 100.23L591.42 101.04C590.84 103.48 590.77 106.13 592.13 108.3L588.83 109.48L588.59 110.35C587.47 114.44 585.71 117.31 581.02 116.08L580.97 116.07C579.66 115.77 578.39 115.31 577.23 114.64C574.77 112.9 574.59 110.09 575.11 107.34L575.26 106.53L573.63 106.23L573.48 107.04C573.24 108.31 573.13 109.66 573.3 110.96C573.18 110.78 573.05 110.6 572.94 110.42C570.64 106.82 569.46 102.02 568.7 97.83C569.68 96.52 570.16 95.02 570.52 93.43C570.72 92.53 570.97 90.9001 571.5 90.1601L571.68 89.9101L571.76 89.62C572.03 88.65 572.28 87.6601 572.49 86.6701C578.41 87.4401 583.48 86.4601 588.01 82.3501C593.14 81.7901 598.73 81.41 603.83 82.24L603.93 82.2601H604.03C607.53 82.1701 610.1 80.6401 611.48 77.6001C611.51 77.7001 611.54 77.8001 611.57 77.8901C613.88 85.2101 616.41 92.24 614.85 99.99C614.44 99.71 613.96 99.5201 613.47 99.4801C613.14 98.1601 612.46 96.3501 613.32 95.1901L613.79 94.55L612.5 93.6001L612.03 94.24C610.69 96.06 611.51 97.9701 611.94 99.9101C608.15 102.61 607.87 106.11 606.7 110.21ZM608.96 108.36C609.66 105.56 610.39 103.1 612.99 101.28C613.36 101.02 613.9 101.38 614.21 101.71C612.73 104.03 610.98 106.43 608.96 108.36Z" fill="black"/>
<path id="Vector_24" fill-rule="evenodd" clip-rule="evenodd" d="M631.89 16.9199C629.16 16.3499 626.79 17.4899 624.8 19.3699C617.74 24.2799 615.34 34.8199 614.74 42.8599C614.01 52.6499 615.45 63.8699 618.93 73.0299L614.65 102.32L614.66 102.37C615.76 107.49 619.48 109.65 624.29 110.72C627.22 111.37 630.35 111.59 633.34 111.72C637.14 111.88 640.96 111.89 644.77 111.93H644.82L644.87 111.91C652.15 108.82 660.73 103.99 663.58 96.1099C666.73 87.4299 661.91 77.8899 657.12 70.8199C653.06 57.4399 653.32 43.0299 644.94 31.1899C646.24 25.9299 645.55 19.4699 641.39 15.5999C638.1 12.5499 633.98 12.7799 631.89 16.9199ZM636.4 49.2499L633.03 52.6599C631.31 47.5299 629.27 39.3999 632.7 34.7799C634.62 39.3599 636.2 44.2499 636.4 49.2499ZM644.38 109.72C640.73 109.68 637.08 109.67 633.43 109.51C632.84 109.48 632.25 109.46 631.66 109.42C635.41 108.32 638.44 106.18 639.48 102.15C641.95 104.7 645.14 105.81 648.69 105.89C650.37 105.93 651.94 105.65 653.33 104.93C650.46 106.91 647.28 108.48 644.38 109.72ZM655.21 103.55C655.29 103.47 655.36 103.39 655.44 103.31C656.84 101.79 657.62 99.8399 658.43 97.9699C659.26 96.0399 661.06 95.0599 661.48 92.7799C662.73 85.9499 658.69 78.9499 655.83 73.0199C655.77 72.8899 655.71 72.7599 655.64 72.6299H655.68C659.88 78.9499 664.3 87.6799 661.51 95.3599C660.33 98.6099 658.01 101.31 655.21 103.55ZM624.61 108.53C620.9 107.7 617.89 106.19 616.89 102.23L620.83 75.2499C626.99 76.2899 631.92 75.8899 638.03 74.5399C640.58 73.9699 643.13 73.3599 645.71 72.9799C648.22 72.6099 650.75 72.4599 653.29 72.5099C653.51 72.9799 653.73 73.4399 653.95 73.9099C656.55 79.2999 660.56 86.2199 659.43 92.3999C659.29 93.1699 658.78 93.8399 658.31 94.4499C657.63 95.3199 656.95 96.1299 656.51 97.1499C654.82 101.09 653.59 103.93 648.74 103.82C644.92 103.74 641.82 102.32 639.68 99.0899L637.95 96.4799L637.78 99.6099C637.41 106.45 631.37 107.92 625.63 108.34L624.6 108.42L624.61 108.53ZM621.17 72.9299L621.19 72.7799L621.01 72.3099C617.62 63.3999 616.23 52.5199 616.94 43.0199C617.49 35.6899 619.64 25.6099 626.07 21.1699L626.19 21.0899L626.3 20.9899C627.77 19.5999 629.5 18.6199 631.58 19.1199L631.93 19.1999C630.11 23.6099 629.86 28.0399 631.99 32.3999C628.35 35.9599 628.37 41.4999 629.19 46.1899C630.18 51.8199 632.53 57.6399 634.88 62.8399L635.1 63.3199L635.35 62.8499C640.67 52.9299 638.56 43.1599 634.37 33.3299L633.85 31.8899L633.84 31.8699C631.82 27.9499 632.01 24.0099 633.64 20.0099C636.32 19.6699 638.32 21.2499 639.77 23.3799C641.22 25.4999 642.2 28.2399 642.78 30.7299L642.55 31.6299L643.07 32.3599C646.34 36.9499 648.29 42.1099 649.7 47.5199L649.12 49.8599C647.77 57.1499 649.36 63.5199 652.23 70.1399C649.94 70.1399 647.65 70.3099 645.38 70.6399C642.73 71.0299 640.14 71.6499 637.53 72.2299C631.69 73.5499 627.06 73.9299 621.17 72.9299ZM633.76 18.1099L633.79 18.0599C635.2 15.1099 637.65 15.1599 639.89 17.2299C642.35 19.5099 643.3 22.8999 643.33 26.1899C641.66 22.0399 638.63 17.7099 633.76 18.1099ZM650.84 52.4399C652.09 58.3699 652.99 64.3799 654.64 70.2099C654.6 70.2099 654.55 70.2099 654.51 70.1999C651.91 64.3899 650.19 58.7699 650.84 52.4399ZM635.13 58.1699C634.67 57.0699 634.23 55.9599 633.82 54.8499L636.36 52.2799C636.19 54.2999 635.79 56.2599 635.13 58.1699Z" fill="black"/>
<path id="Vector_25" fill-rule="evenodd" clip-rule="evenodd" d="M636.05 114.34C659.39 99.7101 673.91 116.5 665.09 144.22C664.84 160.01 672.04 174.39 669.56 190.8C667.94 201.5 664.17 204.51 660.68 197.36C660.12 196.21 659.57 195.05 659.04 193.87L644.66 166.75C643.94 165.39 645.7 164.83 646.29 165.93L651.31 175.39C648.87 169.55 646.32 163.9 643.3 158.9C639.63 162.87 649.73 180.83 656.35 192.54C661.16 201.04 658.32 203.85 650.83 199.82C636.39 192.05 625.9 176.39 620.21 151.12C600.61 123.38 614.71 107.29 636.05 114.34ZM661.06 193.84L661.08 193.83L660.89 193.48C658.4 188.04 656.21 182.44 653.93 176.91C651.28 170.47 648.48 163.92 644.87 157.95L643.59 155.84L641.92 157.65C638.66 161.18 642.64 169.98 644.26 173.58C647.31 180.37 651.06 186.97 654.72 193.45C655.51 194.85 656.4 196.6 656.73 198.19C656.79 198.45 656.95 199.45 656.76 199.69C656.56 199.85 655.75 199.74 655.53 199.7C654.24 199.47 652.83 198.8 651.68 198.18C634.23 188.8 626.12 169.07 621.99 150.71L621.91 150.35L621.82 150.22C628.23 144.34 635.23 149.45 642.6 148.06C646.23 147.71 649.27 145.71 652.57 144.38C656.27 142.89 659.28 142.85 662.82 144.88L663.22 145.11C663.24 152.76 664.9 160.13 666.33 167.61C667.79 175.26 668.89 182.72 667.71 190.51C667.37 192.77 666.83 195.46 665.87 197.54C665.71 197.88 664.95 199.32 664.51 199.38C663.84 199.35 662.57 197.02 662.33 196.53C661.91 195.65 661.48 194.75 661.06 193.84ZM663.42 143.35C659.54 141.19 656.07 141.24 651.98 142.88C648.9 144.12 645.77 146.14 642.42 146.45H642.38L642.34 146.46C638.85 147.13 635.08 146.11 631.58 145.8C627.39 145.42 624.01 146.09 620.89 148.88C617.52 143.92 614.43 138.14 613.22 132.3C612.42 128.44 612.39 124.11 614.38 120.59C616.08 117.58 618.92 115.79 622.23 115.01C626.54 113.99 631.31 114.72 635.46 116.09L635.98 116.26C635.03 118.65 635.82 120.25 637.43 121.5C638.18 119.19 638.62 117.56 636.62 116.15L637.02 115.9C643.97 111.55 654.64 107.56 661.26 114.66C664.08 117.68 665.32 121.93 665.7 125.97C666.25 131.74 665.15 137.85 663.42 143.35Z" fill="black"/>
<path id="Vector_26" fill-rule="evenodd" clip-rule="evenodd" d="M583.87 120.29C590.11 117.66 594.48 109.78 604.71 115.15C608.71 116.8 611.64 120.14 612.75 126.33C607.2 145.91 607.35 162.4 613.18 175.82C615.64 184.74 616.33 192.55 615 199.09C612.98 210.65 607.66 211.66 604.38 203.42C598.81 189.41 592.77 172.13 585.97 164.62C582.38 173.09 591.48 189.85 593.95 205.7C595.7 214.71 590.2 215.37 584.28 210.12C564.46 189.57 571.15 160.34 560.35 142.36C551.38 127.43 566.2 105.89 583.87 120.29ZM569.86 168.35C572.92 179.21 576.25 190.12 583.21 198.74L583.65 199.28C584.56 200.4 585.92 199.53 584.9 198.27L584.46 197.73C579.31 191.36 576.23 183.62 573.78 175.88C571.23 167.81 569.33 159.55 566.47 151.58L566.2 150.82C566 150.17 565.79 149.53 565.56 148.89C578.68 141.98 592.89 145.8 606.7 148.14L606.8 148.16C606.23 157.82 607.37 167.49 611.26 176.5C613.18 183.49 614.47 191.51 613.01 198.7L613 198.75C612.65 200.75 612.1 203.06 611.15 204.87C610.85 205.44 610.18 206.55 609.51 206.77C609.14 206.89 608.73 206.57 608.48 206.34C607.5 205.47 606.73 203.88 606.26 202.68C603.36 195.38 600.63 187.99 597.49 180.78C595 175.08 591.66 167.9 587.47 163.27L585.34 160.92L584.1 163.83C581.77 169.32 584.13 177.51 585.74 182.97C587.98 190.56 590.72 198.17 591.95 206.02L591.96 206.06L591.97 206.1C592.15 207.04 592.74 210.89 591.35 211.35C589.77 211.88 586.81 209.66 585.69 208.67C576.53 199.14 573.19 187.61 570.94 174.94C570.57 172.81 570.22 170.6 569.86 168.35ZM610.68 126.24C608.88 132.67 607.53 139.37 606.96 146.1C592.68 143.68 578.4 139.94 564.84 146.96C564.06 144.99 563.15 143.11 562.09 141.34C558.45 135.28 558.92 127.04 563.63 121.67C565.7 119.32 568.43 117.78 571.59 117.59C575.67 117.34 579.51 119.36 582.58 121.87L583.52 122.64L584.64 122.17C588 120.75 590.53 118.17 593.71 116.54C597.25 114.71 600.29 115.14 603.76 116.96L603.84 117L603.93 117.04C608.01 118.7 609.86 122.1 610.68 126.24Z" fill="black"/>
<path id="Vector_27" fill-rule="evenodd" clip-rule="evenodd" d="M537.97 123.14C542.06 120.62 546.78 119.96 553.18 124.39C560.35 126.13 560.36 142.39 555.15 163.84C557.81 183.12 569.07 205.43 563.13 221.68C557.51 223.3 554.15 220.41 552.55 213.98C548.53 200.38 542.41 189.09 534.03 180.29C528.09 190.33 538.83 207.9 541.23 221.7C542.45 228.7 538.81 230.11 534.29 226.59C517.73 213.69 511.56 190.76 512.43 161.26C503.05 144.87 502.22 131.62 510.2 126.15C515.67 121.5 522.3 121.46 529.78 124.86L537.97 123.14ZM545.43 127.92C546.34 133.66 549.51 139.31 548.29 145.07L548.08 146.05C547.81 147.32 549.76 147.79 550.04 146.46L550.25 145.48C550.98 142.02 550.38 138.82 549.45 135.49C548.75 132.99 547.88 130.49 547.45 127.92C549.09 127.76 550.7 127.18 552.23 126.02L552.4 126.14L552.74 126.22C556.3 127.08 556.83 133.97 556.93 136.78C557.07 140.69 556.71 144.73 556.18 148.61C555.93 150.46 555.63 152.31 555.29 154.16L555.25 154.15C551.28 153.59 548.15 154.98 544.76 156.85C541.15 158.85 538.13 160.64 533.97 161.36C530.03 162.05 526.11 162.47 522.15 161.81C520.84 161.59 519.56 161.28 518.26 161.01C516.88 160.73 515.53 160.54 514.14 160.44L514.06 160.3C510.59 154.23 507.13 146.54 506.68 139.47C506.4 134.98 507.34 130.37 511.26 127.69L511.34 127.63L511.41 127.57C511.66 127.35 511.92 127.15 512.18 126.96C516.99 128.16 521.33 128.75 525.87 127.69C525.24 134.16 524.81 140.53 526.48 146.92L526.69 147.72C527 148.92 528.59 148.47 528.28 147.3L528.07 146.5C526.4 140.13 526.93 133.68 527.57 127.21C528.1 127.04 528.63 126.85 529.17 126.63L529.55 126.8L537.3 125.19C539.92 126.5 542.69 127.68 545.43 127.92ZM514.28 162.22C515.5 162.31 516.7 162.49 517.91 162.74C519.23 163.01 520.53 163.33 521.86 163.55C526.04 164.25 530.13 163.83 534.27 163.1C538.67 162.33 541.8 160.5 545.61 158.39C548.62 156.73 551.43 155.41 554.96 155.89C554.47 158.4 553.91 160.91 553.31 163.39L553.22 163.74L553.27 164.1C554.68 174.31 558.11 184.32 560.52 194.34C562.44 202.33 564.23 212.01 561.67 220.09C557.26 220.92 555.44 217.79 554.38 213.53L554.37 213.49L554.36 213.45C550.59 200.7 544.63 188.68 535.4 178.99L533.68 177.18L532.41 179.33C528.78 185.48 530.76 193.75 532.7 200.14C533.85 203.93 535.21 207.66 536.47 211.42C537.62 214.86 538.75 218.44 539.37 222.03C539.51 222.85 539.89 225.91 538.95 226.47C538.12 226.96 536.05 225.56 535.45 225.1C527.07 218.57 521.81 209.62 518.62 199.58C514.86 187.73 513.98 174.59 514.28 162.22ZM550.76 125.06C547.22 127.37 543.17 126.15 539.48 124.44C543.46 122.21 547.02 122.82 550.76 125.06ZM526.95 125.71C522.63 127.06 518.56 126.74 514.13 125.74C518.16 123.68 522.57 124.09 526.95 125.71Z" fill="black"/>
<path id="Vector_28" fill-rule="evenodd" clip-rule="evenodd" d="M474.61 164.75C464.79 140.73 465.78 123.48 486.63 125.32C503.12 126.78 508.97 136.94 504.31 151.13L500.24 163.33C497.69 184.12 497.88 204.58 496.71 224.54C495.87 238.78 490.03 238.35 485.73 230.84C476.29 214.35 478.31 186.78 474.61 164.75ZM498.47 162.03C491.24 164.57 484.35 165.3 476.84 163.18L476.16 162.99C473.1 155.33 469.33 143.77 471.16 135.8C472.91 128.17 479.4 126.78 486.45 127.4C500.59 128.65 506.91 136.72 502.33 150.46L498.47 162.03ZM476.78 165.07C484.13 167.04 490.96 166.44 498.04 164.11C495.67 184.18 495.8 204.29 494.62 224.42C494.48 226.76 494.17 229.62 493.3 231.82C493.07 232.4 492.49 233.64 491.83 233.87C491.39 234.02 490.73 233.6 490.4 233.35C489.25 232.49 488.25 231.03 487.55 229.8C482.62 221.19 481.05 209.41 480.1 199.67C478.99 188.18 478.64 176.47 476.78 165.07Z" fill="black"/>
<path id="Vector_29" fill-rule="evenodd" clip-rule="evenodd" d="M447.58 124.39C459.7 126.69 468.4 131.42 467.21 143.19C467.06 149.87 466.02 156.33 464.25 163.01C463.29 179.19 461.34 194.22 460.52 208.13C460.07 215.81 462.95 223.53 462.74 231.66C462.61 236.77 458.53 236.76 454.9 231.39C449.09 222.8 445.87 212.07 443.66 200.48C439.61 181.45 438.08 169.4 438.17 163.3C427.21 143.97 429.95 130.82 447.58 124.39ZM462.23 163.09C459.49 166.35 455.58 169.31 451.08 169.4C446.44 169.49 442.65 166.46 439.86 162.91V162.86L439.63 162.46C430.95 147.15 429.2 133.12 447.72 126.15C452.3 127.05 457.7 128.55 461.3 131.55C464.89 134.53 465.98 138.44 465.51 143.02L465.5 143.09V143.16C465.35 149.77 464.29 156.2 462.6 162.58L462.58 162.66L462.23 163.09ZM439.89 165.65C442.87 168.87 446.68 171.28 451.18 171.19C455.58 171.1 459.43 168.68 462.39 165.63C461.93 172.51 461.3 179.38 460.65 186.25C459.97 193.5 459.26 200.75 458.83 208.02C458.36 215.97 461.25 223.67 461.05 231.6C461.04 232.06 460.94 233.76 460.18 233.74C458.81 233.71 456.99 231.42 456.31 230.42C450.32 221.57 447.31 210.53 445.33 200.15L445.32 200.12C443.68 192.41 442.16 184.61 441.04 176.8C440.53 173.24 440.02 169.35 439.89 165.65Z" fill="black"/>
<path id="Vector_30" fill-rule="evenodd" clip-rule="evenodd" d="M399.56 166.84C395.19 149.02 393.39 138.65 398.2 131.29C405.72 122.11 418.99 120.47 429.3 133.82C434.09 140.03 430.04 152.38 425.99 170.62L426 171.28C426.22 186.72 426.1 201.46 423.68 213.9C421.7 224.06 419.87 234.18 419.98 244.54C420.03 249.56 414.42 248.89 412.9 244.62C404.14 220.03 400.63 194.24 399.56 166.84ZM423.91 170.57C415.42 178.43 408.06 174.42 401.9 166.04L401.33 165.26L401.3 165.28C400.42 161.67 399.57 158.04 398.85 154.4C398.24 151.31 397.71 148.14 397.49 145C397.19 140.69 397.47 136.23 399.86 132.51C403.05 128.67 407.58 126.07 412.66 126.17C418.88 126.29 424.01 130.35 427.66 135.08C430.08 138.21 429.46 143.77 428.91 147.4C428.4 150.81 427.64 154.22 426.87 157.59C425.91 161.79 424.9 165.97 423.97 170.18L423.92 170.42L423.91 170.57ZM401.71 168.94C408.01 176.61 415.66 179.79 423.95 173.09C424.03 179.83 424.05 186.58 423.77 193.32C423.49 200.05 422.93 206.88 421.65 213.5C419.66 223.75 417.8 234.08 417.91 244.56C417.92 245.13 417.88 246.04 417.12 246C416.06 245.95 415.17 244.85 414.84 243.92C406.24 219.76 402.84 194.45 401.71 168.94Z" fill="black"/>
<path id="Vector_31" fill-rule="evenodd" clip-rule="evenodd" d="M387.99 129.77C395.98 129.69 398.83 133.64 395.67 147.64L391.42 166.63L386.83 227C386.71 246.25 379.42 248.69 374.55 229.05C370.33 210.44 371.63 190.48 370.14 168.88L364.76 143.4C362.24 134.69 364.12 130 372.27 129.92L387.99 129.77ZM389.39 165.6C384.63 171.72 377.83 176.19 372.39 168.15L371.86 167.36L371.84 167.37L366.68 142.92L366.66 142.85C365.99 140.53 365.09 136.62 366.27 134.33C367.35 132.24 370.19 131.92 372.29 131.9L388.01 131.74C390.31 131.72 393.09 131.93 394.22 134.27C395.76 137.47 394.47 143.92 393.74 147.2L389.72 165.19L389.39 165.6ZM372.26 171.06C374.4 173.4 377.18 174.86 380.56 174.28C383.92 173.71 386.92 171.3 389.27 168.7L384.85 226.91V226.98C384.83 230.35 384.61 234.3 383.67 237.55C383.51 238.11 382.7 240.49 382.03 240.68C381.39 240.64 380.18 238.7 379.92 238.23C378.32 235.4 377.24 231.71 376.47 228.59C374.35 219.24 373.67 209.58 373.29 200.01C372.92 190.35 372.84 180.71 372.26 171.06Z" fill="black"/>
<path id="Vector_32" fill-rule="evenodd" clip-rule="evenodd" d="M337.05 140.77C336.41 133.67 335.62 129.27 342.93 129.88L358.05 129.26C364.81 131.31 366.22 135.2 364.47 146.34L360.96 168.71C361.28 192.51 358.09 214.5 356.66 238.03C356.18 245.95 347.53 238.64 346.71 231.15C344.38 209.84 342.85 188.68 342.08 167.68C339.73 159.04 337.89 150.16 337.05 140.77ZM359.31 168.49C354.22 173.72 349.11 172.59 343.78 168.18L343.76 167.62L343.75 167.43L343.7 167.24C341.32 158.5 339.53 149.66 338.72 140.63C338.55 138.72 338.01 134.76 338.6 132.97C339.16 131.28 341.33 131.43 342.79 131.55L342.89 131.56L357.83 130.95C360.05 131.65 362.02 132.66 362.88 134.98C364 137.99 363.3 142.99 362.81 146.08L359.31 168.49ZM343.86 170.32C349.08 174.2 354.31 175.02 359.31 170.73C359.42 193.21 356.36 215.52 354.99 237.93C354.97 238.2 354.81 239.65 354.47 239.77C354.09 239.9 353.11 239.25 352.83 239.04C350.54 237.29 348.69 233.84 348.38 230.96C346.18 210.81 344.67 190.58 343.86 170.32Z" fill="black"/>
</g>
</svg>
